<svg preserveAspectRatio="none" overflow="visible" style="display: block;" width="73.7052" height="36.8526" viewBox="0 0 73.7052 36.8526" fill="none" xmlns="http://www.w3.org/2000/svg">
<path id="Vector" d="M47.9084 36.8526L40.5379 29.4821H33.1674L25.7968 36.8526H18.4263C16.4715 36.8526 14.5968 36.0761 13.2146 34.6938C11.8323 33.3116 11.0558 31.4369 11.0558 29.4821V7.37052C11.0558 5.41574 11.8323 3.54102 13.2146 2.15878C14.5968 0.776535 16.4715 0 18.4263 0H55.2789C57.2337 0 59.1084 0.776535 60.4907 2.15878C61.8729 3.54102 62.6494 5.41574 62.6494 7.37052V29.4821C62.6494 31.4369 61.8729 33.3116 60.4907 34.6938C59.1084 36.0761 57.2337 36.8526 55.2789 36.8526H47.9084ZM73.7052 25.7968C73.7052 26.7742 73.317 27.7116 72.6258 28.4027C71.9347 29.0938 70.9974 29.4821 70.02 29.4821C69.0426 29.4821 68.1052 29.0938 67.4141 28.4027C66.723 27.7116 66.3347 26.7742 66.3347 25.7968V11.0558C66.3347 10.0784 66.723 9.14103 67.4141 8.44991C68.1052 7.75879 69.0426 7.37052 70.02 7.37052C70.9974 7.37052 71.9347 7.75879 72.6258 8.44991C73.317 9.14103 73.7052 10.0784 73.7052 11.0558V25.7968ZM7.37052 25.7968C7.37052 26.7742 6.98226 27.7116 6.29113 28.4027C5.60001 29.0938 4.66265 29.4821 3.68526 29.4821C2.70787 29.4821 1.77051 29.0938 1.07939 28.4027C0.388267 27.7116 0 26.7742 0 25.7968V11.0558C0 10.0784 0.388267 9.14103 1.07939 8.44991C1.77051 7.75879 2.70787 7.37052 3.68526 7.37052C4.66265 7.37052 5.60001 7.75879 6.29113 8.44991C6.98226 9.14103 7.37052 10.0784 7.37052 11.0558V25.7968Z" fill="white"/>
</svg>
